<svg xmlns="http://www.w3.org/2000/svg" xmlns:xlink="http://www.w3.org/1999/xlink" width="500" zoomAndPan="magnify" viewBox="0 0 375 374.999991" height="500" preserveAspectRatio="xMidYMid meet" version="1.0"><defs><clipPath id="5286b6d66c"><path d="M 112.03125 158.582031 L 307 158.582031 L 307 262.832031 L 112.03125 262.832031 Z M 112.03125 158.582031 " clip-rule="nonzero"/></clipPath><clipPath id="a37d1a0e36"><path d="M 68.199219 112.382812 L 199.566406 112.382812 L 199.566406 220 L 68.199219 220 Z M 68.199219 112.382812 " clip-rule="nonzero"/></clipPath><clipPath id="d5f43663ba"><path d="M 203 198 L 262 198 L 262 253.835938 L 203 253.835938 Z M 203 198 " clip-rule="nonzero"/></clipPath><clipPath id="84c4cbc7aa"><path d="M 90.34375 152.875 L 209.59375 152.875 L 209.59375 224.875 L 90.34375 224.875 Z M 90.34375 152.875 " clip-rule="nonzero"/></clipPath></defs><g clip-path="url(#5286b6d66c)"><path fill="#002c59" d="M 271.636719 191.929688 C 271.046875 191.929688 270.464844 191.941406 269.886719 191.976562 C 265.648438 173.027344 248.738281 158.859375 228.507812 158.859375 C 208.277344 158.859375 190.839844 173.460938 186.925781 192.859375 C 184.460938 192.253906 181.902344 191.941406 179.257812 191.941406 C 164.4375 191.941406 151.949219 201.917969 148.121094 215.503906 C 144.738281 213.777344 140.898438 212.785156 136.839844 212.785156 C 123.132812 212.785156 112.03125 223.886719 112.03125 237.582031 C 112.03125 251.277344 123.132812 262.390625 136.839844 262.390625 L 271.648438 262.390625 C 291.105469 262.390625 306.878906 246.617188 306.878906 227.160156 C 306.878906 207.703125 291.105469 191.929688 271.648438 191.929688 Z M 271.636719 191.929688 " fill-opacity="1" fill-rule="nonzero"/></g><g clip-path="url(#a37d1a0e36)"><path fill="#ffe100" d="M 199.199219 213.683594 L 194.265625 211.996094 L 191.792969 211.152344 C 190.972656 210.859375 190.167969 210.53125 189.355469 210.222656 L 184.480469 208.34375 C 182.867188 207.683594 181.273438 206.976562 179.671875 206.296875 L 177.265625 205.261719 C 176.464844 204.917969 175.6875 204.527344 174.894531 204.160156 L 170.160156 201.921875 C 168.597656 201.144531 167.054688 200.328125 165.5 199.535156 L 163.167969 198.332031 L 160.875 197.058594 L 156.296875 194.5 L 151.796875 191.800781 C 150.28125 190.917969 148.816406 189.964844 147.339844 189.015625 C 145.875 188.054688 144.375 187.148438 142.933594 186.148438 C 137.101562 182.261719 131.457031 178.085938 125.925781 173.753906 C 114.917969 165.019531 104.523438 155.472656 94.839844 145.230469 C 90 140.109375 85.335938 134.8125 80.871094 129.347656 C 76.414062 123.878906 72.109375 118.269531 68.199219 112.382812 C 71.875 118.417969 75.96875 124.203125 80.21875 129.859375 C 84.480469 135.511719 88.953125 141.007812 93.617188 146.347656 C 102.941406 157.015625 113.035156 167.046875 123.820312 176.3125 C 129.238281 180.910156 134.792969 185.363281 140.566406 189.546875 C 141.988281 190.617188 143.472656 191.601562 144.925781 192.632812 C 146.386719 193.65625 147.84375 194.683594 149.347656 195.644531 L 153.824219 198.574219 L 158.394531 201.367188 L 160.683594 202.757812 L 163.015625 204.078125 C 164.574219 204.953125 166.121094 205.847656 167.6875 206.707031 L 172.445312 209.1875 C 173.242188 209.59375 174.027344 210.027344 174.832031 210.414062 L 177.253906 211.570312 C 178.875 212.332031 180.484375 213.121094 182.113281 213.863281 L 187.050781 215.996094 C 187.875 216.34375 188.695312 216.714844 189.523438 217.050781 L 197.058594 219.957031 L 199.199219 213.683594 " fill-opacity="1" fill-rule="nonzero"/></g><g clip-path="url(#d5f43663ba)"><path fill="#ffe100" d="M 261.859375 238.96875 C 260.777344 242.054688 252.082031 239.339844 252.082031 239.339844 L 240.734375 235.359375 L 234.789062 240.300781 C 235.882812 240.804688 236.273438 241.113281 236.273438 241.113281 L 236.269531 241.121094 C 236.445312 241.257812 236.292969 242.203125 235.910156 243.300781 C 235.523438 244.398438 235.050781 245.230469 234.828125 245.226562 L 234.828125 245.234375 C 234.828125 245.234375 233.660156 245.242188 230.46875 244.121094 C 230.398438 244.097656 230.335938 244.074219 230.269531 244.050781 L 219.210938 253.238281 C 218.640625 253.707031 217.867188 253.847656 217.171875 253.601562 L 214.601562 252.699219 C 214.152344 252.542969 213.988281 251.992188 214.28125 251.613281 L 229.742188 231.503906 L 222.414062 228.933594 C 221.296875 228.539062 220.863281 228.328125 219.792969 227.824219 C 218.773438 227.34375 217.417969 226.621094 215.980469 225.800781 L 206.753906 232.664062 C 206.378906 232.941406 205.890625 233.015625 205.453125 232.863281 L 204.253906 232.441406 C 203.832031 232.292969 203.652344 231.796875 203.886719 231.414062 L 209.730469 221.902344 C 208.335938 220.929688 207.425781 220.160156 207.515625 219.902344 C 207.605469 219.644531 208.808594 219.617188 210.519531 219.726562 L 211.898438 208.636719 C 211.953125 208.191406 212.402344 207.914062 212.828125 208.0625 L 214.027344 208.484375 C 214.464844 208.636719 214.800781 209 214.917969 209.449219 L 217.839844 220.59375 C 219.460938 220.847656 220.960938 221.128906 222.050781 221.390625 C 223.203125 221.667969 223.671875 221.769531 224.789062 222.160156 L 232.121094 224.734375 L 232.613281 199.351562 C 232.621094 198.875 233.09375 198.542969 233.542969 198.703125 L 236.113281 199.605469 C 236.8125 199.847656 237.328125 200.441406 237.476562 201.164062 L 240.375 215.246094 C 240.441406 215.265625 240.503906 215.289062 240.574219 215.3125 C 243.765625 216.433594 244.671875 217.167969 244.671875 217.167969 L 244.667969 217.175781 C 244.847656 217.308594 244.695312 218.257812 244.308594 219.355469 C 243.925781 220.453125 243.453125 221.285156 243.230469 221.28125 L 243.226562 221.289062 C 243.226562 221.289062 242.730469 221.285156 241.558594 220.996094 L 243.121094 228.59375 L 254.457031 232.566406 C 254.457031 232.566406 262.941406 235.878906 261.859375 238.96875 " fill-opacity="1" fill-rule="nonzero"/></g><g clip-path="url(#84c4cbc7aa)"><path fill="#003d7b" d="M 192.601562 175.878906 C 190.355469 175.878906 188.222656 176.316406 186.257812 177.113281 C 184.398438 169.832031 177.785156 164.445312 169.921875 164.445312 C 166.546875 164.445312 163.398438 165.441406 160.765625 167.152344 C 157.75 158.847656 149.78125 152.90625 140.429688 152.90625 C 128.898438 152.90625 119.476562 161.925781 118.832031 173.292969 C 116.683594 172.570312 114.382812 172.183594 111.984375 172.183594 C 100.03125 172.183594 90.34375 181.871094 90.34375 193.816406 C 90.34375 205.757812 100.03125 215.445312 111.976562 215.445312 C 115.183594 215.445312 118.226562 214.742188 120.957031 213.488281 C 125.390625 220.507812 133.210938 225.179688 142.121094 225.179688 C 150.027344 225.179688 157.082031 221.503906 161.664062 215.773438 C 164.160156 218.25 167.585938 219.773438 171.378906 219.773438 C 178.386719 219.773438 184.160156 214.554688 185.050781 207.796875 C 187.324219 208.933594 189.886719 209.585938 192.601562 209.585938 C 201.910156 209.585938 209.457031 202.039062 209.457031 192.730469 C 209.457031 183.421875 201.910156 175.878906 192.601562 175.878906 Z M 192.601562 175.878906 " fill-opacity="1" fill-rule="nonzero"/></g></svg>