<svg xmlns="http://www.w3.org/2000/svg" xmlns:xlink="http://www.w3.org/1999/xlink" width="500" zoomAndPan="magnify" viewBox="0 0 375 374.999991" height="500" preserveAspectRatio="xMidYMid meet" version="1.0"><defs><g/><clipPath id="371c2e93e9"><path d="M 109.429688 175.632812 L 304.242188 175.632812 L 304.242188 279.859375 L 109.429688 279.859375 Z M 109.429688 175.632812 " clip-rule="nonzero"/></clipPath><clipPath id="31047ecfc2"><path d="M 65.59375 129.652344 L 196.964844 129.652344 L 196.964844 237.0625 L 65.59375 237.0625 Z M 65.59375 129.652344 " clip-rule="nonzero"/></clipPath><clipPath id="4e7bbdee27"><path d="M 201 215 L 260 215 L 260 270.648438 L 201 270.648438 Z M 201 215 " clip-rule="nonzero"/></clipPath><clipPath id="6946a1c815"><path d="M 87.742188 169.929688 L 206.578125 169.929688 L 206.578125 242.011719 L 87.742188 242.011719 Z M 87.742188 169.929688 " clip-rule="nonzero"/></clipPath></defs><g clip-path="url(#371c2e93e9)"><path fill="#002c59" d="M 269.035156 208.980469 C 268.445312 208.980469 267.863281 208.992188 267.285156 209.027344 C 263.046875 190.078125 246.136719 175.910156 225.90625 175.910156 C 205.675781 175.910156 188.238281 190.511719 184.324219 209.910156 C 181.859375 209.304688 179.300781 208.992188 176.652344 208.992188 C 161.835938 208.992188 149.347656 218.96875 145.519531 232.554688 C 142.136719 230.828125 138.296875 229.835938 134.238281 229.835938 C 120.527344 229.835938 109.429688 240.9375 109.429688 254.632812 C 109.429688 268.328125 120.527344 279.441406 134.238281 279.441406 L 269.046875 279.441406 C 288.503906 279.441406 304.28125 263.667969 304.28125 244.210938 C 304.28125 224.753906 288.503906 208.980469 269.046875 208.980469 Z M 269.035156 208.980469 " fill-opacity="1" fill-rule="nonzero"/></g><g clip-path="url(#31047ecfc2)"><path fill="#ffe100" d="M 196.597656 230.738281 L 191.664062 229.050781 L 189.191406 228.207031 C 188.375 227.914062 187.566406 227.585938 186.753906 227.277344 L 181.878906 225.398438 C 180.265625 224.738281 178.671875 224.03125 177.070312 223.351562 L 174.664062 222.316406 C 173.863281 221.972656 173.085938 221.582031 172.292969 221.214844 L 167.558594 218.980469 C 165.996094 218.199219 164.453125 217.382812 162.898438 216.589844 L 160.566406 215.386719 L 158.273438 214.113281 L 153.695312 211.554688 L 149.191406 208.855469 C 147.679688 207.972656 146.210938 207.019531 144.738281 206.070312 C 143.273438 205.109375 141.773438 204.203125 140.332031 203.203125 C 134.5 199.316406 128.851562 195.140625 123.324219 190.808594 C 112.316406 182.074219 101.921875 172.527344 92.238281 162.285156 C 87.398438 157.164062 82.730469 151.867188 78.269531 146.402344 C 73.8125 140.929688 69.507812 135.324219 65.59375 129.4375 C 69.273438 135.472656 73.363281 141.257812 77.617188 146.914062 C 81.875 152.566406 86.347656 158.0625 91.011719 163.398438 C 100.339844 174.070312 110.429688 184.101562 121.214844 193.367188 C 126.636719 197.964844 132.191406 202.417969 137.960938 206.601562 C 139.386719 207.675781 140.871094 208.65625 142.324219 209.6875 C 143.785156 210.710938 145.242188 211.738281 146.746094 212.699219 L 151.222656 215.628906 L 155.792969 218.421875 L 158.082031 219.8125 L 160.414062 221.132812 C 161.96875 222.007812 163.515625 222.902344 165.085938 223.761719 L 169.84375 226.242188 C 170.640625 226.652344 171.425781 227.082031 172.230469 227.46875 L 174.652344 228.625 C 176.273438 229.390625 177.882812 230.175781 179.511719 230.921875 L 184.449219 233.050781 C 185.273438 233.398438 186.09375 233.769531 186.921875 234.105469 L 194.457031 237.011719 L 196.597656 230.738281 " fill-opacity="1" fill-rule="nonzero"/></g><g clip-path="url(#4e7bbdee27)"><path fill="#ffe100" d="M 259.257812 256.023438 C 258.175781 259.109375 249.480469 256.398438 249.480469 256.398438 L 238.136719 252.414062 L 232.1875 257.355469 C 233.28125 257.863281 233.671875 258.167969 233.671875 258.167969 L 233.667969 258.175781 C 233.847656 258.3125 233.695312 259.257812 233.308594 260.355469 C 232.921875 261.453125 232.453125 262.285156 232.226562 262.28125 L 232.226562 262.289062 C 232.226562 262.289062 231.058594 262.296875 227.867188 261.179688 C 227.796875 261.15625 227.734375 261.128906 227.667969 261.109375 L 216.609375 270.292969 C 216.042969 270.765625 215.269531 270.902344 214.570312 270.65625 L 212 269.757812 C 211.550781 269.601562 211.386719 269.046875 211.679688 268.667969 L 227.140625 248.558594 L 219.8125 245.988281 C 218.695312 245.597656 218.265625 245.382812 217.195312 244.878906 C 216.171875 244.402344 214.816406 243.675781 213.378906 242.855469 L 204.152344 249.722656 C 203.777344 250 203.289062 250.074219 202.851562 249.917969 L 201.652344 249.496094 C 201.230469 249.351562 201.050781 248.851562 201.285156 248.472656 L 207.128906 238.957031 C 205.734375 237.984375 204.824219 237.214844 204.914062 236.960938 C 205.007812 236.703125 206.207031 236.671875 207.917969 236.785156 L 209.296875 225.691406 C 209.355469 225.25 209.804688 224.96875 210.226562 225.117188 L 211.425781 225.539062 C 211.863281 225.691406 212.199219 226.054688 212.316406 226.503906 L 215.238281 237.648438 C 216.863281 237.90625 218.359375 238.183594 219.449219 238.445312 C 220.601562 238.722656 221.070312 238.824219 222.1875 239.214844 L 229.523438 241.789062 L 230.011719 216.40625 C 230.019531 215.929688 230.496094 215.601562 230.945312 215.757812 L 233.515625 216.660156 C 234.210938 216.902344 234.726562 217.496094 234.878906 218.21875 L 237.773438 232.300781 C 237.839844 232.324219 237.90625 232.34375 237.972656 232.367188 C 241.164062 233.488281 242.070312 234.222656 242.070312 234.222656 L 242.070312 234.230469 C 242.246094 234.367188 242.09375 235.3125 241.707031 236.410156 C 241.324219 237.507812 240.851562 238.339844 240.628906 238.335938 L 240.625 238.34375 C 240.625 238.34375 240.128906 238.339844 238.957031 238.050781 L 240.523438 245.648438 L 251.855469 249.621094 C 251.855469 249.621094 260.339844 252.9375 259.257812 256.023438 " fill-opacity="1" fill-rule="nonzero"/></g><g clip-path="url(#6946a1c815)"><path fill="#003d7b" d="M 189.996094 192.929688 C 187.746094 192.929688 185.613281 193.371094 183.648438 194.164062 C 181.789062 186.886719 175.179688 181.5 167.316406 181.5 C 163.941406 181.5 160.792969 182.496094 158.160156 184.207031 C 155.144531 175.902344 147.175781 169.960938 137.824219 169.960938 C 126.296875 169.960938 116.871094 178.980469 116.230469 190.347656 C 114.078125 189.625 111.777344 189.238281 109.378906 189.238281 C 97.429688 189.238281 87.742188 198.925781 87.742188 210.867188 C 87.742188 222.8125 97.429688 232.5 109.371094 232.5 C 112.582031 232.5 115.621094 231.792969 118.355469 230.542969 C 122.789062 237.558594 130.605469 242.230469 139.515625 242.230469 C 147.421875 242.230469 154.472656 238.554688 159.058594 232.824219 C 161.550781 235.300781 164.980469 236.824219 168.769531 236.824219 C 175.777344 236.824219 181.550781 231.609375 182.441406 224.847656 C 184.714844 225.984375 187.28125 226.636719 189.996094 226.636719 C 199.304688 226.636719 206.847656 219.09375 206.847656 209.785156 C 206.847656 200.476562 199.304688 192.929688 189.996094 192.929688 Z M 189.996094 192.929688 " fill-opacity="1" fill-rule="nonzero"/></g><g fill="#002c59" fill-opacity="1"><g transform="translate(116.311803, 172.23754)"><g><path d="M 0.890625 -0.28125 L -10.03125 -52.953125 L 7.296875 -58.328125 L 28.046875 -8.6875 L 18.34375 -5.6875 L 15.0625 -13.75 L 8.875 -11.828125 L 10.828125 -3.359375 Z M 7.109375 -20.21875 L 11.75 -21.65625 L 1.421875 -46.984375 L 0.953125 -46.828125 Z M 7.109375 -20.21875 "/></g></g></g><g fill="#002c59" fill-opacity="1"><g transform="translate(142.703074, 163.950896)"><g><path d="M 7.84375 -1.515625 L -8.03125 -44.921875 L 2.671875 -47.015625 L 9.296875 -24.78125 L 11.0625 -17.59375 L 10.078125 -25 L 8.125 -48.0625 L 18.84375 -50.15625 L 20.265625 -3.9375 Z M 7.84375 -1.515625 "/></g></g></g><g fill="#002c59" fill-opacity="1"><g transform="translate(169.05128, 159.030634)"><g><path d="M -3.28125 -48.625 L -4.125 -56.1875 L 6.71875 -57.390625 L 7.5625 -49.828125 Z M 2.109375 -0.234375 L -2.953125 -45.59375 L 7.890625 -46.796875 L 12.953125 -1.4375 Z M 2.109375 -0.234375 "/></g></g></g><g fill="#002c59" fill-opacity="1"><g transform="translate(182.165694, 157.213543)"><g><path d="M 15.109375 0.046875 C 10.242188 0.191406 6.691406 -0.90625 4.453125 -3.25 C 2.222656 -5.601562 1.03125 -9.460938 0.875 -14.828125 L 0.703125 -20.046875 L 11.234375 -20.359375 L 11.4375 -13.703125 C 11.519531 -11.046875 12.414062 -9.742188 14.125 -9.796875 C 15.070312 -9.816406 15.722656 -10.113281 16.078125 -10.6875 C 16.441406 -11.257812 16.601562 -12.210938 16.5625 -13.546875 C 16.507812 -15.285156 16.253906 -16.71875 15.796875 -17.84375 C 15.347656 -18.96875 14.789062 -19.90625 14.125 -20.65625 C 13.46875 -21.414062 12.28125 -22.578125 10.5625 -24.140625 L 5.8125 -28.609375 C 2.132812 -32.003906 0.234375 -35.820312 0.109375 -40.0625 C -0.0234375 -44.625 0.914062 -48.128906 2.9375 -50.578125 C 4.96875 -53.023438 8 -54.304688 12.03125 -54.421875 C 16.84375 -54.566406 20.347656 -53.398438 22.546875 -50.921875 C 24.742188 -48.441406 25.921875 -44.476562 26.078125 -39.03125 L 15.171875 -38.6875 L 15 -42.359375 C 14.976562 -43.066406 14.765625 -43.625 14.359375 -44.03125 C 13.960938 -44.4375 13.410156 -44.628906 12.703125 -44.609375 C 11.867188 -44.585938 11.25 -44.335938 10.84375 -43.859375 C 10.4375 -43.390625 10.25 -42.757812 10.28125 -41.96875 C 10.332031 -40.226562 11.382812 -38.453125 13.4375 -36.640625 L 19.84375 -30.84375 C 21.332031 -29.46875 22.570312 -28.160156 23.5625 -26.921875 C 24.5625 -25.691406 25.378906 -24.222656 26.015625 -22.515625 C 26.648438 -20.804688 27.003906 -18.773438 27.078125 -16.421875 C 27.234375 -11.140625 26.382812 -7.109375 24.53125 -4.328125 C 22.6875 -1.546875 19.546875 -0.0859375 15.109375 0.046875 Z M 15.109375 0.046875 "/></g></g></g><g fill="#002c59" fill-opacity="1"><g transform="translate(208.380973, 156.290267)"><g><path d="M 1.265625 0.78125 L 6.484375 1.1875 C 7.234375 1.238281 7.628906 0.953125 7.671875 0.328125 C 7.691406 0.0351562 7.691406 -0.191406 7.671875 -0.359375 L 3.953125 -45.484375 L 14.328125 -44.6875 L 14.703125 -22.328125 L 14.828125 -10.9375 L 16.875 -22.15625 L 20.984375 -44.1875 L 31.4375 -43.390625 L 19.328125 3.859375 C 18.910156 5.609375 18.222656 6.875 17.265625 7.65625 C 16.304688 8.445312 14.875 8.769531 12.96875 8.625 L 0.734375 7.6875 Z M 1.265625 0.78125 "/></g></g></g><g fill="#002c59" fill-opacity="1"><g transform="translate(234.455849, 158.062381)"><g><path d="M 10.609375 -44.453125 L 21.328125 -42.4375 L 20.25 -36.734375 C 21.039062 -38.484375 22.09375 -39.828125 23.40625 -40.765625 C 24.726562 -41.703125 26.3125 -42 28.15625 -41.65625 C 31.175781 -41.082031 33.234375 -39.726562 34.328125 -37.59375 C 35.421875 -35.46875 35.644531 -32.6875 35 -29.25 L 28.484375 5.359375 L 17.953125 3.375 L 24.265625 -30.140625 C 24.453125 -31.117188 24.414062 -31.988281 24.15625 -32.75 C 23.894531 -33.519531 23.351562 -33.976562 22.53125 -34.125 C 21.4375 -34.332031 20.625 -33.96875 20.09375 -33.03125 C 19.5625 -32.101562 19.132812 -30.800781 18.8125 -29.125 L 12.875 2.421875 L 2.15625 0.40625 Z M 10.609375 -44.453125 "/></g></g></g><g fill="#002c59" fill-opacity="1"><g transform="translate(262.410197, 163.184859)"><g><path d="M 15.046875 5.1875 C 10.285156 3.707031 7.222656 1.429688 5.859375 -1.640625 C 4.503906 -4.722656 4.601562 -8.765625 6.15625 -13.765625 L 10.3125 -27.21875 C 11.476562 -30.988281 12.832031 -33.929688 14.375 -36.046875 C 15.925781 -38.160156 17.847656 -39.515625 20.140625 -40.109375 C 22.429688 -40.703125 25.285156 -40.472656 28.703125 -39.421875 C 32.441406 -38.265625 35.175781 -36.351562 36.90625 -33.6875 C 38.644531 -31.019531 38.972656 -27.929688 37.890625 -24.421875 L 35.828125 -17.765625 L 25.234375 -21.046875 L 27.140625 -27.1875 C 27.492188 -28.332031 27.601562 -29.257812 27.46875 -29.96875 C 27.34375 -30.6875 26.828125 -31.179688 25.921875 -31.453125 C 24.203125 -31.984375 22.972656 -31.039062 22.234375 -28.625 L 15.6875 -7.46875 C 15.375 -6.476562 15.320312 -5.570312 15.53125 -4.75 C 15.738281 -3.925781 16.257812 -3.390625 17.09375 -3.140625 C 17.914062 -2.878906 18.640625 -3.019531 19.265625 -3.5625 C 19.898438 -4.101562 20.363281 -4.914062 20.65625 -6 L 22.859375 -13.359375 L 33.453125 -10.078125 L 31.09375 -2.453125 C 29.988281 1.117188 27.960938 3.566406 25.015625 4.890625 C 22.066406 6.222656 18.742188 6.320312 15.046875 5.1875 Z M 15.046875 5.1875 "/></g></g></g></svg>