<svg width="929" height="568" viewBox="0 0 929 568" fill="none" xmlns="http://www.w3.org/2000/svg">
<g clip-path="url(#clip0_24_237)">
<path d="M386.758 422H919.758C922.144 421.997 924.432 421.048 926.119 419.361C927.806 417.674 928.755 415.386 928.758 413V8.99999C928.755 6.61389 927.806 4.32632 926.119 2.63909C924.432 0.951864 922.144 0.00276337 919.758 -7.62939e-06H386.758C384.372 0.00268149 382.084 0.95177 380.397 2.63902C378.71 4.32626 377.761 6.61387 377.758 8.99999V413C377.761 415.386 378.71 417.674 380.397 419.361C382.084 421.048 384.372 421.997 386.758 422ZM919.758 1.99999C921.614 2.00207 923.393 2.74024 924.706 4.05254C926.018 5.36485 926.756 7.14412 926.758 8.99999V413C926.756 414.856 926.018 416.635 924.706 417.947C923.393 419.26 921.614 419.998 919.758 420H386.758C384.902 419.998 383.123 419.26 381.811 417.947C380.499 416.635 379.76 414.856 379.758 413V8.99999C379.76 7.14414 380.499 5.36492 381.811 4.05264C383.123 2.74035 384.902 2.00216 386.758 1.99999H919.758Z" fill="#E6E6E6"/>
<path d="M438.758 96H867.758C870.144 95.9972 872.432 95.0481 874.119 93.3609C875.806 91.6737 876.755 89.3861 876.758 87V56C876.755 53.6139 875.806 51.3263 874.119 49.6391C872.432 47.9519 870.144 47.0028 867.758 47H438.758C436.372 47.0027 434.084 47.9518 432.397 49.639C430.71 51.3263 429.761 53.6139 429.758 56V87C429.761 89.3861 430.71 91.6737 432.397 93.361C434.084 95.0482 436.372 95.9973 438.758 96ZM867.758 49C869.614 49.0021 871.393 49.7402 872.706 51.0525C874.018 52.3648 874.756 54.1441 874.758 56V87C874.756 88.8559 874.018 90.6351 872.706 91.9474C871.393 93.2597 869.614 93.9979 867.758 94H438.758C436.902 93.9978 435.123 93.2596 433.811 91.9473C432.499 90.6351 431.76 88.8558 431.758 87V56C431.76 54.1441 432.499 52.3649 433.811 51.0526C435.123 49.7403 436.902 49.0022 438.758 49H867.758Z" fill="#3F3D56"/>
<path d="M697.758 179H867.758C870.144 178.997 872.432 178.048 874.119 176.361C875.806 174.674 876.755 172.386 876.758 170V139C876.755 136.614 875.806 134.326 874.119 132.639C872.432 130.952 870.144 130.003 867.758 130H697.758C695.372 130.003 693.085 130.952 691.397 132.639C689.71 134.326 688.761 136.614 688.758 139V170C688.761 172.386 689.71 174.674 691.397 176.361C693.085 178.048 695.372 178.997 697.758 179ZM867.758 132C869.614 132.002 871.393 132.74 872.706 134.053C874.018 135.365 874.756 137.144 874.758 139V170C874.756 171.856 874.018 173.635 872.706 174.947C871.393 176.26 869.614 176.998 867.758 177H697.758C695.902 176.998 694.123 176.26 692.811 174.947C691.498 173.635 690.76 171.856 690.758 170V139C690.76 137.144 691.498 135.365 692.811 134.053C694.123 132.74 695.902 132.002 697.758 132H867.758Z" fill="#3F3D56"/>
<path d="M438.758 179H608.758C611.144 178.997 613.432 178.048 615.119 176.361C616.806 174.674 617.755 172.386 617.758 170V139C617.755 136.614 616.806 134.326 615.119 132.639C613.432 130.952 611.144 130.003 608.758 130H438.758C436.372 130.003 434.084 130.952 432.397 132.639C430.71 134.326 429.761 136.614 429.758 139V170C429.761 172.386 430.71 174.674 432.397 176.361C434.084 178.048 436.372 178.997 438.758 179ZM608.758 132C610.614 132.002 612.393 132.74 613.706 134.053C615.018 135.365 615.756 137.144 615.758 139V170C615.756 171.856 615.018 173.635 613.706 174.947C612.393 176.26 610.614 176.998 608.758 177H438.758C436.902 176.998 435.123 176.26 433.811 174.947C432.499 173.635 431.76 171.856 431.758 170V139C431.76 137.144 432.499 135.365 433.811 134.053C435.123 132.74 436.902 132.002 438.758 132H608.758Z" fill="#3F3D56"/>
<path d="M438.258 375H552.258C554.512 374.997 556.672 374.101 558.266 372.508C559.859 370.914 560.756 368.754 560.758 366.5V355.5C560.756 353.246 559.859 351.086 558.266 349.492C556.672 347.899 554.512 347.003 552.258 347H438.258C436.005 347.003 433.844 347.899 432.251 349.493C430.657 351.086 429.761 353.247 429.758 355.5V366.5C429.761 368.754 430.657 370.914 432.251 372.507C433.844 374.101 436.005 374.997 438.258 375Z" fill="#E6E6E6"/>
<path d="M848.758 231C850.34 231 851.887 230.531 853.203 229.652C854.518 228.773 855.544 227.523 856.149 226.061C856.755 224.6 856.913 222.991 856.604 221.439C856.296 219.887 855.534 218.462 854.415 217.343C853.296 216.224 851.871 215.462 850.319 215.154C848.767 214.845 847.159 215.003 845.697 215.609C844.235 216.214 842.985 217.24 842.106 218.555C841.227 219.871 840.758 221.418 840.758 223C840.761 225.121 841.604 227.154 843.104 228.654C844.604 230.154 846.637 230.998 848.758 231ZM848.758 217C849.945 217 851.105 217.352 852.092 218.011C853.078 218.67 853.847 219.608 854.301 220.704C854.756 221.8 854.874 223.007 854.643 224.171C854.411 225.334 853.84 226.404 853.001 227.243C852.162 228.082 851.093 228.653 849.929 228.885C848.765 229.116 847.558 228.997 846.462 228.543C845.366 228.089 844.429 227.32 843.769 226.333C843.11 225.347 842.758 224.187 842.758 223C842.76 221.409 843.393 219.884 844.517 218.759C845.642 217.634 847.167 217.002 848.758 217Z" fill="#E6E6E6"/>
<path d="M848.758 257C850.34 257 851.887 256.531 853.203 255.652C854.518 254.773 855.544 253.523 856.149 252.061C856.755 250.6 856.913 248.991 856.604 247.439C856.296 245.887 855.534 244.462 854.415 243.343C853.296 242.224 851.871 241.462 850.319 241.154C848.767 240.845 847.159 241.003 845.697 241.609C844.235 242.214 842.985 243.24 842.106 244.555C841.227 245.871 840.758 247.418 840.758 249C840.761 251.121 841.604 253.154 843.104 254.654C844.604 256.154 846.637 256.998 848.758 257ZM848.758 243C849.945 243 851.105 243.352 852.092 244.011C853.078 244.67 853.847 245.608 854.301 246.704C854.756 247.8 854.874 249.007 854.643 250.171C854.411 251.334 853.84 252.404 853.001 253.243C852.162 254.082 851.093 254.653 849.929 254.885C848.765 255.116 847.558 254.997 846.462 254.543C845.366 254.089 844.429 253.32 843.769 252.333C843.11 251.347 842.758 250.187 842.758 249C842.76 247.409 843.393 245.884 844.517 244.759C845.642 243.634 847.167 243.002 848.758 243Z" fill="#E6E6E6"/>
<path d="M848.758 283C850.34 283 851.887 282.531 853.203 281.652C854.518 280.773 855.544 279.523 856.149 278.061C856.755 276.6 856.913 274.991 856.604 273.439C856.296 271.887 855.534 270.462 854.415 269.343C853.296 268.224 851.871 267.462 850.319 267.154C848.767 266.845 847.159 267.003 845.697 267.609C844.235 268.214 842.985 269.24 842.106 270.555C841.227 271.871 840.758 273.418 840.758 275C840.761 277.121 841.604 279.154 843.104 280.654C844.604 282.154 846.637 282.998 848.758 283ZM848.758 269C849.945 269 851.105 269.352 852.092 270.011C853.078 270.67 853.847 271.608 854.301 272.704C854.756 273.8 854.874 275.007 854.643 276.171C854.411 277.334 853.84 278.404 853.001 279.243C852.162 280.082 851.093 280.653 849.929 280.885C848.765 281.116 847.558 280.997 846.462 280.543C845.366 280.089 844.429 279.32 843.769 278.333C843.11 277.347 842.758 276.187 842.758 275C842.76 273.409 843.393 271.884 844.517 270.759C845.642 269.634 847.167 269.002 848.758 269Z" fill="#3F3D56"/>
<path d="M809.758 216.5C811.482 216.5 813.135 217.185 814.354 218.404C815.573 219.623 816.258 221.276 816.258 223C816.258 224.724 815.573 226.377 814.354 227.596C813.135 228.815 811.482 229.5 809.758 229.5H716.758C715.034 229.5 713.381 228.815 712.162 227.596C710.943 226.377 710.258 224.724 710.258 223C710.258 221.276 710.943 219.623 712.162 218.404C713.381 217.185 715.034 216.5 716.758 216.5H809.758Z" fill="#E6E6E6"/>
<path d="M809.758 242.5C811.482 242.5 813.135 243.185 814.354 244.404C815.573 245.623 816.258 247.276 816.258 249C816.258 250.724 815.573 252.377 814.354 253.596C813.135 254.815 811.482 255.5 809.758 255.5H716.758C715.034 255.5 713.381 254.815 712.162 253.596C710.943 252.377 710.258 250.724 710.258 249C710.258 247.276 710.943 245.623 712.162 244.404C713.381 243.185 715.034 242.5 716.758 242.5H809.758Z" fill="#E6E6E6"/>
<path d="M809.758 268.5C811.482 268.5 813.135 269.185 814.354 270.404C815.573 271.623 816.258 273.276 816.258 275C816.258 276.724 815.573 278.377 814.354 279.596C813.135 280.815 811.482 281.5 809.758 281.5H716.758C715.034 281.5 713.381 280.815 712.162 279.596C710.943 278.377 710.258 276.724 710.258 275C710.258 273.276 710.943 271.623 712.162 270.404C713.381 269.185 715.034 268.5 716.758 268.5H809.758Z" fill="#E6E6E6"/>
<path d="M589.258 231C590.84 231 592.387 230.531 593.703 229.652C595.018 228.773 596.044 227.523 596.649 226.061C597.255 224.6 597.413 222.991 597.104 221.439C596.796 219.887 596.034 218.462 594.915 217.343C593.796 216.224 592.371 215.462 590.819 215.154C589.267 214.845 587.659 215.003 586.197 215.609C584.735 216.214 583.485 217.24 582.606 218.555C581.727 219.871 581.258 221.418 581.258 223C581.261 225.121 582.104 227.154 583.604 228.654C585.104 230.154 587.137 230.998 589.258 231ZM589.258 217C590.445 217 591.605 217.352 592.592 218.011C593.578 218.67 594.347 219.608 594.801 220.704C595.256 221.8 595.374 223.007 595.143 224.171C594.911 225.334 594.34 226.404 593.501 227.243C592.662 228.082 591.593 228.653 590.429 228.885C589.265 229.116 588.058 228.997 586.962 228.543C585.866 228.089 584.929 227.32 584.269 226.333C583.61 225.347 583.258 224.187 583.258 223C583.26 221.409 583.893 219.884 585.017 218.759C586.142 217.634 587.667 217.002 589.258 217Z" fill="#E6E6E6"/>
<path d="M589.258 257C590.84 257 592.387 256.531 593.703 255.652C595.018 254.773 596.044 253.523 596.649 252.061C597.255 250.6 597.413 248.991 597.104 247.439C596.796 245.887 596.034 244.462 594.915 243.343C593.796 242.224 592.371 241.462 590.819 241.154C589.267 240.845 587.659 241.003 586.197 241.609C584.735 242.214 583.485 243.24 582.606 244.555C581.727 245.871 581.258 247.418 581.258 249C581.261 251.121 582.104 253.154 583.604 254.654C585.104 256.154 587.137 256.998 589.258 257ZM589.258 243C590.445 243 591.605 243.352 592.592 244.011C593.578 244.67 594.347 245.608 594.801 246.704C595.256 247.8 595.374 249.007 595.143 250.171C594.911 251.334 594.34 252.404 593.501 253.243C592.662 254.082 591.593 254.653 590.429 254.885C589.265 255.116 588.058 254.997 586.962 254.543C585.866 254.089 584.929 253.32 584.269 252.333C583.61 251.347 583.258 250.187 583.258 249C583.26 247.409 583.893 245.884 585.017 244.759C586.142 243.634 587.667 243.002 589.258 243Z" fill="#3F3D56"/>
<path d="M589.258 283C590.84 283 592.387 282.531 593.703 281.652C595.018 280.773 596.044 279.523 596.649 278.061C597.255 276.6 597.413 274.991 597.104 273.439C596.796 271.887 596.034 270.462 594.915 269.343C593.796 268.224 592.371 267.462 590.819 267.154C589.267 266.845 587.659 267.003 586.197 267.609C584.735 268.214 583.485 269.24 582.606 270.555C581.727 271.871 581.258 273.418 581.258 275C581.261 277.121 582.104 279.154 583.604 280.654C585.104 282.154 587.137 282.998 589.258 283ZM589.258 269C590.445 269 591.605 269.352 592.592 270.011C593.578 270.67 594.347 271.608 594.801 272.704C595.256 273.8 595.374 275.007 595.143 276.171C594.911 277.334 594.34 278.404 593.501 279.243C592.662 280.082 591.593 280.653 590.429 280.885C589.265 281.116 588.058 280.997 586.962 280.543C585.866 280.089 584.929 279.32 584.269 278.333C583.61 277.347 583.258 276.187 583.258 275C583.26 273.409 583.893 271.884 585.017 270.759C586.142 269.634 587.667 269.002 589.258 269Z" fill="#E6E6E6"/>
<path d="M589.258 309C590.84 309 592.387 308.531 593.703 307.652C595.018 306.773 596.044 305.523 596.649 304.061C597.255 302.6 597.413 300.991 597.104 299.439C596.796 297.887 596.034 296.462 594.915 295.343C593.796 294.224 592.371 293.462 590.819 293.154C589.267 292.845 587.659 293.003 586.197 293.609C584.735 294.214 583.485 295.24 582.606 296.555C581.727 297.871 581.258 299.418 581.258 301C581.261 303.121 582.104 305.154 583.604 306.654C585.104 308.154 587.137 308.998 589.258 309ZM589.258 295C590.445 295 591.605 295.352 592.592 296.011C593.578 296.67 594.347 297.608 594.801 298.704C595.256 299.8 595.374 301.007 595.143 302.171C594.911 303.334 594.34 304.404 593.501 305.243C592.662 306.082 591.593 306.653 590.429 306.885C589.265 307.116 588.058 306.997 586.962 306.543C585.866 306.089 584.929 305.32 584.269 304.333C583.61 303.347 583.258 302.187 583.258 301C583.26 299.409 583.893 297.884 585.017 296.759C586.142 295.634 587.667 295.002 589.258 295Z" fill="#E6E6E6"/>
<path d="M551.258 216.5C552.982 216.5 554.635 217.185 555.854 218.404C557.073 219.623 557.758 221.276 557.758 223C557.758 224.724 557.073 226.377 555.854 227.596C554.635 228.815 552.982 229.5 551.258 229.5H458.258C456.534 229.5 454.881 228.815 453.662 227.596C452.443 226.377 451.758 224.724 451.758 223C451.758 221.276 452.443 219.623 453.662 218.404C454.881 217.185 456.534 216.5 458.258 216.5H551.258Z" fill="#E6E6E6"/>
<path d="M551.258 242.5C552.982 242.5 554.635 243.185 555.854 244.404C557.073 245.623 557.758 247.276 557.758 249C557.758 250.724 557.073 252.377 555.854 253.596C554.635 254.815 552.982 255.5 551.258 255.5H458.258C456.534 255.5 454.881 254.815 453.662 253.596C452.443 252.377 451.758 250.724 451.758 249C451.758 247.276 452.443 245.623 453.662 244.404C454.881 243.185 456.534 242.5 458.258 242.5H551.258Z" fill="#E6E6E6"/>
<path d="M551.258 268.5C552.982 268.5 554.635 269.185 555.854 270.404C557.073 271.623 557.758 273.276 557.758 275C557.758 276.724 557.073 278.377 555.854 279.596C554.635 280.815 552.982 281.5 551.258 281.5H458.258C456.534 281.5 454.881 280.815 453.662 279.596C452.443 278.377 451.758 276.724 451.758 275C451.758 273.276 452.443 271.623 453.662 270.404C454.881 269.185 456.534 268.5 458.258 268.5H551.258Z" fill="#E6E6E6"/>
<path d="M551.258 294.5C552.982 294.5 554.635 295.185 555.854 296.404C557.073 297.623 557.758 299.276 557.758 301C557.758 302.724 557.073 304.377 555.854 305.596C554.635 306.815 552.982 307.5 551.258 307.5H458.258C456.534 307.5 454.881 306.815 453.662 305.596C452.443 304.377 451.758 302.724 451.758 301C451.758 299.276 452.443 297.623 453.662 296.404C454.881 295.185 456.534 294.5 458.258 294.5H551.258Z" fill="#E6E6E6"/>
<path d="M848.631 148C850.355 148 852.008 148.685 853.227 149.904C854.446 151.123 855.131 152.776 855.131 154.5C855.131 156.224 854.446 157.877 853.227 159.096C852.008 160.315 850.355 161 848.631 161H737.631C735.907 161 734.254 160.315 733.035 159.096C731.816 157.877 731.131 156.224 731.131 154.5C731.131 152.776 731.816 151.123 733.035 149.904C734.254 148.685 735.907 148 737.631 148H848.631Z" fill="#E6E6E6"/>
<path d="M848.631 65C850.355 65 852.008 65.6848 853.227 66.9038C854.446 68.1228 855.131 69.7761 855.131 71.5C855.131 73.2239 854.446 74.8772 853.227 76.0962C852.008 77.3152 850.355 78 848.631 78H737.631C735.907 78 734.254 77.3152 733.035 76.0962C731.816 74.8772 731.131 73.2239 731.131 71.5C731.131 69.7761 731.816 68.1228 733.035 66.9038C734.254 65.6848 735.907 65 737.631 65H848.631Z" fill="#002C59"/>
<path d="M719.375 150.324C719.463 150.324 719.549 150.348 719.625 150.391C719.701 150.435 719.765 150.498 719.808 150.574C719.852 150.65 719.875 150.737 719.875 150.824C719.875 150.912 719.852 150.998 719.809 151.074L715.564 158.426C715.52 158.502 715.457 158.565 715.381 158.609C715.305 158.652 715.219 158.676 715.131 158.676C715.043 158.676 714.957 158.652 714.881 158.609C714.805 158.565 714.742 158.502 714.698 158.426L710.454 151.074C710.41 150.998 710.387 150.912 710.387 150.824C710.387 150.737 710.41 150.65 710.454 150.574C710.498 150.498 710.561 150.435 710.637 150.391C710.713 150.348 710.799 150.324 710.887 150.324H719.375Z" fill="#002C59"/>
<path d="M589.631 148C591.355 148 593.008 148.685 594.227 149.904C595.446 151.123 596.131 152.776 596.131 154.5C596.131 156.224 595.446 157.877 594.227 159.096C593.008 160.315 591.355 161 589.631 161H478.631C476.907 161 475.254 160.315 474.035 159.096C472.816 157.877 472.131 156.224 472.131 154.5C472.131 152.776 472.816 151.123 474.035 149.904C475.254 148.685 476.907 148 478.631 148H589.631Z" fill="#E6E6E6"/>
<path d="M460.375 150.324C460.463 150.324 460.549 150.348 460.625 150.391C460.701 150.435 460.765 150.498 460.809 150.574C460.852 150.65 460.875 150.737 460.875 150.824C460.875 150.912 460.852 150.998 460.809 151.074L456.564 158.426C456.52 158.502 456.457 158.565 456.381 158.609C456.305 158.652 456.219 158.676 456.131 158.676C456.044 158.676 455.957 158.652 455.881 158.609C455.805 158.565 455.742 158.502 455.698 158.426L451.454 151.074C451.41 150.998 451.387 150.912 451.387 150.824C451.387 150.737 451.41 150.65 451.454 150.574C451.498 150.498 451.561 150.435 451.637 150.391C451.713 150.348 451.799 150.324 451.887 150.324H460.375Z" fill="#002C59"/>
<path d="M589.258 253C587.049 253 585.258 251.209 585.258 249C585.258 246.791 587.049 245 589.258 245C591.467 245 593.258 246.791 593.258 249C593.258 251.209 591.467 253 589.258 253Z" fill="#002C59"/>
<path d="M848.758 279C846.549 279 844.758 277.209 844.758 275C844.758 272.791 846.549 271 848.758 271C850.967 271 852.758 272.791 852.758 275C852.758 277.209 850.967 279 848.758 279Z" fill="#002C59"/>
</g>
<g clip-path="url(#clip1_24_237)">
<path d="M417.35 520H601.387C606.592 520 610.826 516.068 610.826 511.235V202.765C610.826 197.932 606.592 194 601.387 194H417.35C412.145 194 407.911 197.932 407.911 202.765V511.235C407.911 516.068 412.145 520 417.35 520ZM529.456 195.464C573.525 195.464 609.249 228.641 609.249 269.566V511.235C609.249 515.267 605.729 518.536 601.387 518.536H417.35C413.008 518.536 409.488 515.267 409.488 511.235V202.765C409.488 198.733 413.008 195.464 417.35 195.464L529.456 195.464Z" fill="#E6E6E6"/>
<path d="M408.867 275.291C408.867 275.813 408.236 276.233 407.45 276.233H164.302C163.516 276.233 162.885 275.813 162.885 275.291C162.885 274.768 163.516 274.349 164.302 274.349H407.45C408.236 274.349 408.867 274.768 408.867 275.291Z" fill="#E6E6E6"/>
<path d="M606.616 409.815L604.21 469.037H610.067V475.741H593.696V469.037H598.471L598.13 409.815H606.616Z" fill="#3F3D56"/>
<path d="M612.933 459.539C610.441 459.539 608.421 461.415 608.421 463.729V481.049C608.421 483.363 610.441 485.239 612.933 485.239C615.425 485.239 617.445 483.363 617.445 481.049V463.729C617.445 461.415 615.425 459.539 612.933 459.539Z" fill="#3F3D56"/>
<path d="M590.072 459.539C587.58 459.539 585.56 461.415 585.56 463.729V481.049C585.56 483.363 587.58 485.239 590.072 485.239C592.564 485.239 594.584 483.363 594.584 481.049V463.729C594.584 461.415 592.564 459.539 590.072 459.539Z" fill="#3F3D56"/>
<path d="M553.374 372.917L646.021 369.006L631.583 362.861L550.366 363.978L553.374 372.917Z" fill="#002C59"/>
<path d="M922.758 381.602L911.569 377.691L564.203 386.071L549.765 379.925L555.781 417.916L831.709 390.611L922.758 381.602Z" fill="#002C59"/>
<path d="M833.42 403.67L831.709 390.611L555.781 417.916L557.285 437.191L833.42 403.67Z" fill="#3F3D56"/>
<path d="M647.826 442.22C632.044 442.22 619.25 429.588 619.25 414.006C619.25 398.424 632.044 385.792 647.826 385.792C663.608 385.792 676.402 398.424 676.402 414.006C676.402 429.588 663.608 442.22 647.826 442.22Z" fill="#3F3D56"/>
<path d="M647.826 428.532C636.197 428.532 626.77 419.777 626.77 408.977C626.77 398.178 636.197 389.423 647.826 389.423C659.455 389.423 668.882 398.178 668.882 408.977C668.882 419.777 659.455 428.532 647.826 428.532Z" fill="#002C59"/>
<path d="M412.9 409.815L415.307 469.037H409.449V475.741H425.82V469.037H421.046L421.387 409.815H412.9Z" fill="#3F3D56"/>
<path d="M406.583 459.539H406.583C409.075 459.539 411.095 461.415 411.095 463.729V481.049C411.095 483.363 409.075 485.239 406.583 485.239H406.583C404.091 485.239 402.071 483.363 402.071 481.049V463.729C402.071 461.415 404.091 459.539 406.583 459.539Z" fill="#3F3D56"/>
<path d="M429.444 459.539H429.444C431.936 459.539 433.956 461.415 433.956 463.729V481.049C433.956 483.363 431.936 485.239 429.444 485.239H429.444C426.952 485.239 424.932 483.363 424.932 481.049V463.729C424.932 461.415 426.952 459.539 429.444 459.539Z" fill="#3F3D56"/>
<path d="M466.142 372.917L373.495 369.006L387.934 362.861L469.15 363.978L466.142 372.917Z" fill="#002C59"/>
<path d="M499.302 360.88L503.514 274.842L510.131 288.251L508.928 363.674L499.302 360.88Z" fill="#002C59"/>
<path d="M96.7581 381.602L107.947 377.691L455.313 386.071L469.752 379.925L463.736 417.916L187.807 390.611L96.7581 381.602Z" fill="#002C59"/>
<path d="M186.096 403.67L187.807 390.611L463.736 417.916L462.232 437.191L186.096 403.67Z" fill="#3F3D56"/>
<path d="M371.69 442.22C355.908 442.22 343.114 429.588 343.114 414.006C343.114 398.424 355.908 385.792 371.69 385.792C387.473 385.792 400.266 398.424 400.266 414.006C400.266 429.588 387.473 442.22 371.69 442.22Z" fill="#3F3D56"/>
<path d="M371.69 428.532C360.061 428.532 350.634 419.777 350.634 408.977C350.634 398.178 360.061 389.423 371.69 389.423C383.319 389.423 392.746 398.178 392.746 408.977C392.746 419.777 383.319 428.532 371.69 428.532Z" fill="#002C59"/>
<path d="M457.268 362.2L458.634 371.545L459.344 421.85C459.398 425.593 459.885 429.291 460.8 432.878C463.435 443.326 469.589 452.829 478.679 459.718C486.927 465.975 498.177 470.713 513.067 469.875C552.773 467.64 556.28 436.258 556.28 436.258L554.782 379.35L554.577 371.545L552.773 357.462C552.773 357.462 547.96 317.795 503.441 318.913C458.923 320.03 457.268 362.2 457.268 362.2Z" fill="#002C59"/>
<path d="M543.147 349.082L534.123 335.673L522.693 332.321H483.588L473.963 335.673L465.228 349.082L481.182 342.378H525.937L543.147 349.082Z" fill="#E6E6E6"/>
<path d="M510.054 445.481L508.511 483.472H512.268V487.773H501.766V483.472H504.829L504.61 445.481H510.054Z" fill="#3F3D56"/>
<path d="M514.107 477.379C512.508 477.379 511.212 478.583 511.212 480.067V491.178C511.212 492.662 512.508 493.866 514.107 493.866C515.705 493.866 517.001 492.662 517.001 491.178V480.067C517.001 478.583 515.705 477.379 514.107 477.379Z" fill="#3F3D56"/>
<path d="M499.441 477.379C497.842 477.379 496.547 478.583 496.547 480.067V491.178C496.547 492.662 497.842 493.866 499.441 493.866C501.04 493.866 502.336 492.662 502.336 491.178V480.067C502.336 478.583 501.04 477.379 499.441 477.379Z" fill="#3F3D56"/>
<path d="M521.253 324.086L529.564 351.876L527.963 352.289L519.651 324.499L521.253 324.086Z" fill="#002C59"/>
<path d="M483.563 328.52L485.195 328.818L479.207 357.118L477.575 356.82L483.563 328.52Z" fill="#002C59"/>
<path d="M312.303 284.125C306.335 284.125 301.497 279.632 301.497 274.09C301.497 268.548 306.335 264.055 312.303 264.055C318.271 264.055 323.109 268.548 323.109 274.09C323.109 279.632 318.271 284.125 312.303 284.125Z" fill="#002C59"/>
<path d="M611.385 316.972C605.417 316.972 600.579 312.479 600.579 306.937C600.579 301.395 605.417 296.902 611.385 296.902C617.353 296.902 622.191 301.395 622.191 306.937C622.191 312.479 617.353 316.972 611.385 316.972Z" fill="#002C59"/>
<path d="M856.058 495.289C856.058 495.811 855.428 496.231 854.642 496.231H611.494C610.708 496.231 610.077 495.811 610.077 495.289C610.077 494.766 610.708 494.347 611.494 494.347H854.642C855.428 494.347 856.058 494.766 856.058 495.289Z" fill="#E6E6E6"/>
<path d="M759.495 504.123C753.527 504.123 748.689 499.63 748.689 494.088C748.689 488.546 753.527 484.053 759.495 484.053C765.463 484.053 770.3 488.546 770.3 494.088C770.3 499.63 765.463 504.123 759.495 504.123Z" fill="#002C59"/>
</g>
<defs>
<clipPath id="clip0_24_237">
<rect width="928.758" height="567.737" fill="white" transform="matrix(-1 0 0 1 928.758 0)"/>
</clipPath>
<clipPath id="clip1_24_237">
<rect width="826" height="326" fill="white" transform="matrix(-1 0 0 1 922.758 194)"/>
</clipPath>
</defs>
</svg>
